<svg width="40" height="40" viewBox="0 0 40 40" fill="none" xmlns="http://www.w3.org/2000/svg">
<g clip-path="url(#clip0_8_194)">
<path d="M18.5 31.5H29.5V33.5H18L18.5 31.5Z" fill="#D9D9D9"/>
<path d="M25 13C25 13.5523 24.5523 14 24 14C23.4477 14 22.5 13.5523 22.5 13C22.5 12.4477 22.9477 11.5 23.5 11.5C24.0523 11.5 25 12.4477 25 13Z" fill="#F2C300"/>
<path d="M27.1264 12.5C27.1264 14.433 25.5594 16 23.6264 16C21.6934 16 20.1264 14.433 20.1264 12.5C20.1264 10.567 21.6934 9.50001 23.6264 9.50001C25.5594 9.50001 27.1264 10.567 27.1264 12.5ZM22 12.5C22 13.3982 22.7282 14.1264 23.6264 14.1264C24.5246 14.1264 25.2528 13.3982 25.2528 12.5C25.2528 11.6018 24.5246 11.1749 23.6264 11.1749C22.7282 11.1749 22 11.6018 22 12.5Z" fill="#F34A23"/>
<path d="M26.5 10.5L29.5 9L30.5 11L27.5 12.5L26.5 10.5Z" fill="#F9E8CC"/>
<path d="M6.5 19L20 13L21 15L8 20.5L7 20L6.5 19Z" fill="#F9E8CC"/>
<rect x="5" y="32" width="6" height="2" fill="#F2C300"/>
<path d="M3 33.5H37L37.5 34.5L36.8463 35.5H3L2.5 34.5L3 33.5Z" fill="#2F4767"/>
<rect x="7" y="29" width="2" height="3" fill="#F2C300"/>
<rect x="7" y="29" width="2" height="3" fill="#F2C300"/>
<rect x="7" y="29" width="2" height="3" fill="#F2C300"/>
<path d="M34.5 22.5C34.5 23.0523 34.0523 23.5 33.5 23.5C32.9477 23.5 32.5 23.0523 32.5 22.5C32.5 21.9477 32.9477 21.5 33.5 21.5C34.0523 21.5 34.5 21.9477 34.5 22.5Z" fill="#F39300"/>
<path d="M29 6.5L31 5L33.5 7.5L34.5 13.5H31.5L29 6.5Z" fill="#F39300"/>
<path d="M30.8496 4.10144C31.1754 4.15357 31.2588 4.29312 31.4844 4.53113C31.5607 4.60457 31.6374 4.6776 31.7145 4.75024C33.8436 6.79157 34.9406 9.42005 35.0521 12.3534C35.0565 12.4613 35.0613 12.5691 35.0667 12.6769C35.0746 12.8338 35.0806 12.9908 35.0867 13.1478C35.0907 13.2408 35.0947 13.3339 35.0988 13.4298C35.0781 13.6718 35.0781 13.6718 34.9995 13.8608C34.8142 14.0077 34.7516 13.9978 34.5215 13.992C34.4216 13.9894 34.3217 13.9869 34.2188 13.9843C34.2163 14.916 34.2168 15.8477 34.221 16.7795C34.2228 17.2121 34.2237 17.6447 34.2222 18.0773C34.2209 18.4948 34.2222 18.9121 34.2253 19.3295C34.226 19.4889 34.2258 19.6483 34.2246 19.8076C34.2231 20.0307 34.2249 20.2534 34.2276 20.4765C34.2264 20.5426 34.2251 20.6087 34.2239 20.6767C34.2281 20.8578 34.2359 21.0011 34.2969 21.1718C34.4687 21.3205 34.6331 21.3884 34.8438 21.4843C35.232 21.9849 35.3074 22.4262 35.2344 23.0468C35.0807 23.4741 34.7931 23.7767 34.3988 23.9962C33.9426 24.164 33.461 24.1327 33.0176 23.9403C32.6311 23.7181 32.4047 23.3859 32.2656 22.9686C32.2045 22.461 32.2787 22.0595 32.5781 21.6405C32.7651 21.4483 32.9619 21.2924 33.2031 21.1718C33.2289 18.7999 33.2547 16.428 33.2812 13.9843C32.6883 13.9843 32.0953 13.9843 31.4844 13.9843C31.2518 13.7516 31.1775 13.6146 31.0562 13.3168C31.0217 13.233 30.9872 13.1492 30.9517 13.0628C30.9164 12.9753 30.8811 12.8878 30.8447 12.7977C30.8085 12.7094 30.7723 12.621 30.735 12.5299C30.6457 12.3118 30.557 12.0934 30.4688 11.8749C29.8068 12.0837 29.1712 12.348 28.5306 12.6143C28.3899 12.6727 28.2491 12.7308 28.1082 12.7889C28.0251 12.8234 27.9421 12.8579 27.8565 12.8935C27.6562 12.9686 27.6562 12.9686 27.5 12.9686C27.4885 13.0565 27.4885 13.0565 27.4768 13.1462C27.3371 14.1024 27.0547 14.7467 26.4062 15.4686C26.3501 15.5095 26.2939 15.5504 26.236 15.5926C26.0631 15.7818 26.0631 15.7818 26.0975 16.082C26.1169 16.2123 26.1383 16.3424 26.1611 16.4722C26.1727 16.5464 26.1843 16.6206 26.1963 16.697C26.2233 16.868 26.2512 17.0389 26.2797 17.2097C26.3323 17.5247 26.3824 17.8401 26.4322 18.1555C26.5452 18.8685 26.6614 19.5809 26.7778 20.2933C26.8365 20.6528 26.8949 21.0124 26.9533 21.3721C27.1389 22.5145 27.325 23.657 27.5113 24.7993C27.6343 25.5537 27.7571 26.3081 27.8795 27.0625C27.9488 27.4893 28.0184 27.9161 28.0883 28.3428C28.1315 28.6075 28.1745 28.8722 28.2173 29.137C28.2372 29.2595 28.2573 29.382 28.2774 29.5045C28.305 29.6718 28.332 29.8392 28.359 30.0066C28.3819 30.147 28.3819 30.147 28.4052 30.2901C28.436 30.5352 28.4435 30.7688 28.4375 31.0155C28.4932 31.0157 28.5489 31.0159 28.6063 31.0161C28.6811 31.0191 28.7559 31.0222 28.833 31.0253C28.9431 31.028 28.9431 31.028 29.0555 31.0308C29.4559 31.135 29.7246 31.3749 29.9457 31.7228C30.0347 31.8947 30.114 32.0681 30.1904 32.246C30.2178 32.3059 30.2451 32.3658 30.2733 32.4275C30.4688 32.8629 30.4688 32.8629 30.4688 33.0468C30.5841 33.046 30.5841 33.046 30.7018 33.0452C31.4282 33.0404 32.1546 33.0369 32.8811 33.0346C33.2545 33.0334 33.6279 33.0317 34.0013 33.0291C34.362 33.0265 34.7226 33.0251 35.0833 33.0245C35.2206 33.0241 35.3579 33.0232 35.4952 33.022C35.6882 33.0203 35.8811 33.02 36.0741 33.0201C36.1584 33.0189 36.1584 33.0189 36.2444 33.0176C36.7501 33.0206 37.1736 33.1375 37.5635 33.4667C37.9273 33.9033 38.0164 34.2 38.0011 34.7646C37.9351 35.2448 37.7085 35.5232 37.334 35.8153C36.9781 36.0087 36.723 36.0254 36.3218 36.0258C36.2649 36.0259 36.2079 36.0261 36.1492 36.0263C35.9569 36.0267 35.7645 36.0266 35.5722 36.0265C35.4335 36.0267 35.2948 36.0269 35.1561 36.0272C34.7737 36.0278 34.3914 36.0279 34.0091 36.028C33.5972 36.0281 33.1853 36.0287 32.7734 36.0293C31.8723 36.0303 30.9711 36.0308 30.0699 36.0311C29.5075 36.0314 28.945 36.0317 28.3826 36.032C26.8262 36.033 25.2697 36.0338 23.7133 36.0341C23.5638 36.0341 23.5638 36.0341 23.4113 36.0341C23.3114 36.0341 23.2115 36.0341 23.1085 36.0342C22.9061 36.0342 22.7036 36.0342 22.5012 36.0343C22.4008 36.0343 22.3003 36.0343 22.1969 36.0343C20.5693 36.0346 18.9416 36.036 17.314 36.0378C15.644 36.0397 13.9739 36.0406 12.3039 36.0407C11.3658 36.0408 10.4277 36.0413 9.48967 36.0427C8.69095 36.0439 7.89222 36.0443 7.0935 36.0436C6.68584 36.0433 6.27819 36.0434 5.87053 36.0445C5.49744 36.0455 5.12436 36.0454 4.75126 36.0444C4.6162 36.0443 4.48113 36.0445 4.34606 36.0452C4.16256 36.0461 3.97912 36.0455 3.79563 36.0446C3.69367 36.0446 3.59172 36.0447 3.48668 36.0447C3.10917 36.0058 2.79951 35.9038 2.5058 35.6523C2.14754 35.2063 1.98119 34.8874 2.03125 34.2967C2.1258 33.8532 2.30951 33.5874 2.65533 33.2988C3.10737 33.0232 3.54066 33.027 4.05273 33.037C4.12141 33.0377 4.1901 33.0384 4.26086 33.0391C4.42912 33.041 4.59738 33.0438 4.76562 33.0468C4.7629 32.9911 4.76018 32.9354 4.75738 32.878C4.74389 32.4007 4.74787 32.0523 5 31.6405C5.24947 31.3775 5.37178 31.3323 5.73614 31.3161C5.83431 31.3175 5.93248 31.3189 6.03363 31.3204C6.13254 31.3215 6.23146 31.3226 6.33337 31.3237C6.40898 31.3251 6.48459 31.3265 6.5625 31.328C6.56127 31.2496 6.56004 31.1712 6.55878 31.0904C6.55452 30.7984 6.55184 30.5065 6.54962 30.2146C6.54845 30.0884 6.54685 29.9622 6.54482 29.8361C6.54196 29.6544 6.54064 29.4727 6.53961 29.291C6.5384 29.2349 6.53719 29.1788 6.53594 29.121C6.53583 28.7738 6.58154 28.5559 6.79687 28.2811C7.03125 28.1249 7.03125 28.1249 7.73437 28.1249C7.70859 25.8046 7.68281 23.4843 7.65625 21.0936C7.42422 21.0421 7.19218 20.9905 6.95312 20.9374C6.51835 20.6823 6.22427 20.3331 6.09375 19.8436C6.02708 19.2808 6.06668 18.8223 6.40625 18.3593C6.93852 17.811 7.72475 17.5839 8.41797 17.3094C8.55503 17.2544 8.69204 17.1991 8.82902 17.1438C9.03968 17.0588 9.25037 16.9738 9.4612 16.8892C10.0703 16.6446 10.6765 16.3934 11.2818 16.1397C11.5696 16.0192 11.8575 15.8991 12.1454 15.779C12.2045 15.7543 12.2636 15.7297 12.3245 15.7043C13.2544 15.3167 14.1859 14.933 15.1172 14.5489C15.8833 14.2329 16.6492 13.916 17.4142 13.5973C17.5633 13.5353 17.7123 13.4733 17.8613 13.4112C18.0744 13.3225 18.2876 13.2337 18.5006 13.1447C18.6945 13.0636 18.8886 12.9828 19.0826 12.9021C19.1397 12.8782 19.1967 12.8542 19.2555 12.8296C19.5017 12.7274 19.7404 12.6383 20 12.578C20.003 12.507 20.003 12.507 20.0061 12.4346C20.0737 11.4363 20.5077 10.6296 21.2256 9.94128C22.0855 9.19918 23.1002 8.98902 24.2085 9.04712C24.8661 9.10737 25.4279 9.35329 25.9528 9.74445C26.1002 9.85823 26.1002 9.85823 26.3281 9.92175C26.5467 9.84598 26.7543 9.76454 26.9662 9.67303C27.0283 9.64691 27.0904 9.62079 27.1544 9.59388C27.3529 9.51018 27.551 9.42546 27.749 9.3407C27.8834 9.28382 28.0179 9.227 28.1523 9.17026C28.4821 9.03091 28.8115 8.89064 29.1406 8.74988C29.1165 8.69317 29.0925 8.63646 29.0677 8.57803C28.9589 8.32004 28.852 8.06135 28.7451 7.80261C28.7072 7.71338 28.6693 7.62416 28.6302 7.53223C28.577 7.40231 28.577 7.40231 28.5226 7.26978C28.4729 7.15072 28.4729 7.15072 28.4222 7.02926C28.3467 6.74992 28.348 6.60361 28.4375 6.328C28.5756 6.15664 28.7062 6.01352 28.8641 5.86322C28.9282 5.80002 28.9282 5.80002 28.9935 5.73555C29.1295 5.60168 29.2669 5.46924 29.4043 5.33679C29.4961 5.24691 29.5879 5.15693 29.6796 5.06686C29.8478 4.90179 30.0166 4.73724 30.186 4.57334C30.3004 4.4624 30.4136 4.35005 30.5217 4.23303C30.625 4.1405 30.625 4.1405 30.8496 4.10144ZM30.5774 5.4201C30.3678 5.62982 30.162 5.8432 29.9565 6.05693C29.8638 6.15133 29.7671 6.2418 29.6695 6.33105C29.5159 6.4689 29.5159 6.4689 29.375 6.71863C29.3965 6.879 29.3965 6.879 29.4648 7.0436C29.4992 7.13687 29.4992 7.13687 29.5344 7.23202C29.5591 7.29463 29.5839 7.35724 29.6094 7.42175C29.6312 7.4777 29.653 7.53365 29.6755 7.5913C29.7443 7.7636 29.8154 7.93484 29.8871 8.10596C29.9267 8.20139 29.9267 8.20139 29.9672 8.29875C30.0527 8.50457 30.1387 8.71023 30.2246 8.91589C30.284 9.0584 30.3433 9.20092 30.4027 9.34344C30.5227 9.63152 30.6429 9.91953 30.7632 10.2075C30.9004 10.536 31.0374 10.8647 31.1741 11.1935C31.2684 11.42 31.3629 11.6465 31.4574 11.8729C31.5013 11.9781 31.5452 12.0834 31.589 12.1886C31.6491 12.3332 31.7096 12.4776 31.77 12.6219C31.8037 12.7026 31.8374 12.7833 31.8721 12.8664C31.9374 13.0402 31.9374 13.0402 32.0312 13.1249C32.1875 13.1317 32.3439 13.1332 32.5003 13.1325C32.5952 13.1323 32.6901 13.132 32.7879 13.1317C32.8879 13.1311 32.9878 13.1304 33.0908 13.1298C33.2412 13.1292 33.2412 13.1292 33.3946 13.1287C33.6433 13.1278 33.892 13.1265 34.1406 13.1249C34.2556 10.0771 33.1036 7.63222 31.1017 5.39478C30.8583 5.15679 30.829 5.19074 30.5774 5.4201ZM28.8937 9.82593C28.8387 9.8481 28.7836 9.87027 28.7268 9.89312C28.6103 9.94013 28.4939 9.98729 28.3775 10.0346C28.1989 10.107 28.02 10.1786 27.841 10.2501C27.728 10.2958 27.6151 10.3416 27.5021 10.3875C27.4214 10.4196 27.4214 10.4196 27.3391 10.4523C27.0542 10.554 27.0542 10.554 26.875 10.7811C26.9476 10.9791 26.9476 10.9791 27.0557 11.1962C27.1869 11.4718 27.3114 11.7465 27.4219 12.0311C27.9932 11.8487 28.5471 11.6344 29.1016 11.4061C29.23 11.3548 29.23 11.3548 29.361 11.3024C29.4421 11.2689 29.5233 11.2355 29.6069 11.201C29.6806 11.171 29.7543 11.141 29.8302 11.1101C30.0257 11.0262 30.0257 11.0262 30.0781 10.7811C30.0081 10.5751 29.9338 10.38 29.8486 10.1805C29.8259 10.1257 29.8032 10.0709 29.7798 10.0144C29.7237 9.87906 29.6666 9.74412 29.6094 9.60925C29.3534 9.60925 29.1282 9.73094 28.8937 9.82593ZM21.3849 11.1376C20.9815 11.7071 20.7812 12.4294 20.8594 13.1249C21.0454 14.0112 21.4164 14.693 22.171 15.212C22.8482 15.6056 23.5192 15.7239 24.2969 15.6249C25.1049 15.4072 25.6775 14.9602 26.1719 14.2968C26.5844 13.5683 26.6909 12.8488 26.5106 12.0299C26.2407 11.1896 25.6966 10.5728 24.9219 10.1561C23.5664 9.62566 22.313 10.0431 21.3849 11.1376ZM20 13.5155C19.9197 13.5488 19.8395 13.5821 19.7568 13.6163C18.632 14.0827 17.5072 14.5491 16.3824 15.0155C16.3162 15.0429 16.25 15.0704 16.1818 15.0987C16.0498 15.1534 15.9177 15.2081 15.7857 15.2629C15.456 15.3996 15.1263 15.5363 14.7966 15.673C14.0562 15.98 13.3159 16.2869 12.5754 16.5937C12.2404 16.7326 11.9053 16.8715 11.5703 17.0106C11.4389 17.0651 11.3075 17.1197 11.1761 17.1743C11.0792 17.2145 11.0792 17.2145 10.9803 17.2556C10.5811 17.4212 10.1815 17.586 9.78167 17.7502C9.52077 17.8574 9.26002 17.9651 8.9993 18.0727C8.87695 18.1231 8.75452 18.1734 8.63202 18.2234C8.46332 18.2923 8.2949 18.3619 8.12652 18.4316C8.03154 18.4706 7.93655 18.5096 7.83869 18.5498C7.52278 18.6977 7.21237 18.8499 6.99707 19.1307C6.93177 19.3774 6.95182 19.5223 7.03125 19.7655C7.23915 20.0044 7.23915 20.0044 7.5 20.1561C8.00795 20.1374 8.4171 19.9804 8.88 19.7808C8.95255 19.7502 9.0251 19.7197 9.09985 19.6883C9.33835 19.5878 9.57639 19.4862 9.81445 19.3846C9.98247 19.3137 10.1505 19.2428 10.3186 19.172C10.5787 19.0625 10.8387 18.9529 11.0986 18.843C11.8918 18.5076 12.6873 18.1782 13.4836 17.8503C13.8541 17.6977 14.2246 17.5447 14.595 17.3918C14.6674 17.362 14.7399 17.3321 14.8145 17.3013C15.6026 16.976 16.3902 16.6497 17.1777 16.3231C17.2442 16.2955 17.3107 16.268 17.3792 16.2396C18.4356 15.8014 19.4916 15.3624 20.5469 14.9218C20.4882 14.6774 20.4116 14.4519 20.3174 14.2186C20.2909 14.1526 20.2644 14.0865 20.2371 14.0184C20.1642 13.8468 20.0842 13.6818 20 13.5155ZM20.7943 15.7376C20.7036 15.7751 20.7036 15.7751 20.611 15.8133C20.512 15.8549 20.512 15.8549 20.4111 15.8974C20.3414 15.9263 20.2718 15.9552 20.2001 15.985C19.9688 16.081 19.7378 16.1777 19.5068 16.2743C19.3444 16.3419 19.182 16.4094 19.0196 16.4769C18.6813 16.6175 18.3432 16.7582 18.0051 16.8991C17.3046 17.1908 16.6031 17.48 15.9016 17.7693C14.9482 18.1625 13.9951 18.5565 13.0426 18.9519C12.9722 18.9811 12.9018 19.0103 12.8293 19.0404C12.501 19.1767 12.1727 19.313 11.8445 19.4495C10.763 19.8987 9.67838 20.3392 8.59375 20.7811C8.59375 23.2046 8.59375 25.628 8.59375 28.1249C8.82578 28.1507 9.05781 28.1764 9.29687 28.203C9.4912 28.305 9.58127 28.3576 9.65421 28.5647C9.70078 28.8238 9.70596 29.0819 9.71222 29.3444C9.71384 29.4011 9.71546 29.4579 9.71713 29.5164C9.72223 29.6971 9.72684 29.8778 9.73144 30.0585C9.73482 30.1813 9.73823 30.304 9.74167 30.4268C9.75001 30.7272 9.75793 31.0276 9.76562 31.328C9.84005 31.3309 9.91447 31.3338 9.99115 31.3369C10.1381 31.3446 10.1381 31.3446 10.2881 31.3524C10.3851 31.3569 10.482 31.3615 10.582 31.3661C10.8668 31.4072 11.0214 31.4697 11.25 31.6405C11.3367 31.7925 11.3367 31.7925 11.3867 31.9628C11.404 32.0178 11.4214 32.0727 11.4392 32.1294C11.5029 32.4313 11.5284 32.7401 11.5625 33.0468C13.3672 33.0468 15.1719 33.0468 17.0312 33.0468C17.3536 32.4068 17.3536 32.4068 17.6562 31.7577C17.809 31.4585 17.9735 31.3199 18.2812 31.1718C18.4162 31.1398 18.552 31.1113 18.6884 31.0857C18.7585 31.0723 18.8286 31.059 18.9009 31.0452C18.9809 31.0305 18.9809 31.0305 19.0625 31.0155C19.3767 29.2025 19.6799 27.388 19.9732 25.5715C20.0048 25.3754 20.0365 25.1793 20.0683 24.9831C20.1793 24.2963 20.2903 23.6095 20.4011 22.9226C20.5039 22.2855 20.607 21.6484 20.7102 21.0113C20.7997 20.4593 20.8889 19.9072 20.978 19.3551C21.0308 19.0274 21.0838 18.6997 21.137 18.3721C21.1866 18.0662 21.236 17.7603 21.2851 17.4544C21.3032 17.3424 21.3213 17.2304 21.3396 17.1185C21.3644 16.9657 21.3889 16.8129 21.4134 16.66C21.4272 16.5747 21.441 16.4893 21.4552 16.4013C21.4822 16.189 21.5017 15.9945 21.4844 15.7811C21.2462 15.5429 21.0774 15.6195 20.7943 15.7376ZM25.0781 16.2499C25.0121 16.274 24.946 16.2982 24.8779 16.3231C24.0201 16.5883 23.2123 16.4784 22.3438 16.328C22.304 16.5118 22.2651 16.6957 22.2266 16.8798C22.2154 16.9311 22.2042 16.9824 22.1927 17.0352C22.0882 17.538 22.0882 17.538 22.1094 18.0468C22.2708 18.2643 22.4655 18.4331 22.6709 18.6083C22.7235 18.6554 22.7761 18.7024 22.8304 18.7509C22.9789 18.883 23.1299 19.0117 23.2812 19.1405C23.3518 19.2047 23.4224 19.2688 23.4952 19.3349C23.659 19.4684 23.659 19.4684 23.8342 19.4512C24.0205 19.3565 24.1347 19.2444 24.2773 19.0917C24.5388 18.8195 24.8098 18.5685 25.0967 18.3235C25.1422 18.2838 25.1876 18.244 25.2344 18.203C25.2764 18.1693 25.3183 18.1355 25.3616 18.1007C25.4851 17.9752 25.4851 17.9752 25.4763 17.8011C25.4663 17.7378 25.4562 17.6746 25.4459 17.6094C25.4352 17.5404 25.4246 17.4714 25.4137 17.4002C25.4012 17.3284 25.3888 17.2565 25.376 17.1825C25.365 17.1103 25.3541 17.0382 25.3429 16.9638C25.2953 16.567 25.2953 16.567 25.0781 16.2499ZM21.875 19.0624C21.7461 19.8874 21.6172 20.7124 21.4844 21.5624C21.9655 21.1502 21.9655 21.1502 22.4414 20.7323C22.5063 20.6749 22.5711 20.6175 22.6379 20.5583C22.7954 20.407 22.9223 20.2568 23.0469 20.078C22.8665 19.9084 22.6857 19.7393 22.5049 19.5702C22.4534 19.5217 22.4019 19.4733 22.3488 19.4234C22.2751 19.3547 22.2751 19.3547 22.2 19.2845C22.1546 19.242 22.1092 19.1994 22.0624 19.1556C21.9672 19.0539 21.9672 19.0539 21.875 19.0624ZM25.3107 19.2833C25.25 19.3458 25.1894 19.4082 25.127 19.4725C25.0667 19.5342 25.0065 19.5958 24.9445 19.6593C24.8559 19.7505 24.8559 19.7505 24.7656 19.8436C24.6616 19.948 24.5575 20.0522 24.4531 20.1561C24.9348 20.6513 25.4133 21.1383 26.0156 21.4843C25.9804 21.2107 25.9444 20.9373 25.9082 20.6639C25.8983 20.5872 25.8885 20.5105 25.8783 20.4314C25.8196 19.9912 25.7423 19.5689 25.625 19.1405C25.4526 19.123 25.4526 19.123 25.3107 19.2833ZM23.559 20.8815C23.5157 20.9274 23.4724 20.9732 23.4277 21.0204C23.2387 21.2149 23.0474 21.4001 22.8418 21.577C22.4975 21.8733 22.1657 22.1825 21.8344 22.4931C21.6459 22.6686 21.4649 22.8254 21.25 22.9686C21.1923 23.1897 21.1487 23.3984 21.1133 23.6229C21.1025 23.6829 21.0917 23.743 21.0806 23.8048C21.0083 24.2114 21.0083 24.2114 21.0937 24.6093C21.213 24.7303 21.213 24.7303 21.3678 24.8317C21.425 24.8722 21.4823 24.9127 21.5412 24.9544C21.603 24.9968 21.6648 25.0392 21.7285 25.0829C21.8569 25.1725 21.9851 25.2622 22.1133 25.352C22.1781 25.3972 22.2428 25.4423 22.3095 25.4888C22.49 25.6178 22.6656 25.7511 22.8403 25.8879C22.8926 25.9284 22.9449 25.9689 22.9988 26.0106C23.0974 26.0873 23.1952 26.1651 23.2921 26.2439C23.4393 26.3619 23.4393 26.3619 23.6719 26.4843C23.9512 26.4033 24.1641 26.2688 24.3951 26.0955C24.4872 26.0269 24.4872 26.0269 24.5812 25.957C24.6453 25.9086 24.7094 25.8602 24.7754 25.8104C24.908 25.7114 25.0407 25.6124 25.1733 25.5135C25.2693 25.4416 25.2693 25.4416 25.3671 25.3683C25.6634 25.1474 25.9631 24.9314 26.2628 24.7151C26.4001 24.6193 26.4001 24.6193 26.4844 24.5311C26.4813 24.4007 26.472 24.2704 26.46 24.1405C26.4538 24.0696 26.4477 23.9987 26.4413 23.9257C26.4298 23.8419 26.4182 23.7581 26.4062 23.6718C26.4001 23.6168 26.3939 23.5618 26.3876 23.5052C26.3067 22.9865 26.0862 22.7445 25.6934 22.412C25.6402 22.3648 25.587 22.3176 25.5322 22.269C25.382 22.1362 25.2303 22.0054 25.0781 21.8749C24.9625 21.7724 24.847 21.6698 24.7314 21.5673C24.6854 21.5278 24.6394 21.4883 24.592 21.4476C24.4877 21.3578 24.3848 21.2664 24.2825 21.1742C24.226 21.1234 24.1695 21.0727 24.1113 21.0204C24.0355 20.9517 24.0355 20.9517 23.9581 20.8815C23.7875 20.7497 23.7226 20.736 23.559 20.8815ZM33.3301 22.1581C33.166 22.3979 33.1615 22.5269 33.2031 22.8124C33.3233 23.0594 33.4013 23.1123 33.6621 23.203C33.9133 23.2234 33.9133 23.2234 34.126 23.076C34.3163 22.8694 34.375 22.7796 34.375 22.4999C34.2382 22.2098 34.2382 22.2098 33.9844 22.0311C33.7045 22.0007 33.5654 21.9971 33.3301 22.1581ZM20.8594 25.5468C20.6982 26.3669 20.5411 27.1878 20.4053 28.0126C20.3894 28.1051 20.3894 28.1051 20.3731 28.1996C20.3271 28.4868 20.3075 28.7059 20.3906 28.9843C20.4775 28.916 20.4775 28.916 20.5661 28.8463C21.1299 28.4064 21.7047 27.9866 22.2929 27.5799C22.347 27.5423 22.401 27.5047 22.4567 27.466C22.5046 27.4329 22.5526 27.3998 22.602 27.3658C22.7368 27.2637 22.8522 27.1533 22.9688 27.0311C22.2824 26.5067 21.6003 25.9926 20.8594 25.5468ZM26.5625 25.5468C26.501 25.595 26.4394 25.6432 26.376 25.6929C25.7751 26.1611 25.1619 26.6038 24.5312 27.0311C25.015 27.4233 25.5162 27.7925 26.0155 28.1645C26.1141 28.2381 26.2127 28.3117 26.3112 28.3855C26.4305 28.4748 26.5502 28.5635 26.6699 28.6522C26.7366 28.7018 26.8033 28.7513 26.8719 28.8024C27.0214 28.9203 27.0214 28.9203 27.1875 28.9061C27.1442 28.2313 27.0567 27.5674 26.9452 26.9008C26.9185 26.7404 26.893 26.5798 26.8675 26.4191C26.8508 26.3178 26.834 26.2166 26.8167 26.1122C26.8017 26.0204 26.7866 25.9286 26.7711 25.834C26.7538 25.765 26.7366 25.696 26.7188 25.6249C26.6672 25.5991 26.6156 25.5733 26.5625 25.5468ZM23.3984 27.8426C23.3427 27.8832 23.287 27.9238 23.2295 27.9657C23.1692 28.0102 23.109 28.0546 23.0469 28.1005C22.9191 28.1938 22.7913 28.287 22.6636 28.3803C22.5978 28.4285 22.532 28.4767 22.4643 28.5264C22.2114 28.7114 21.9576 28.8953 21.7035 29.0787C21.5841 29.165 21.4649 29.2517 21.346 29.3387C20.9788 29.6065 20.6056 29.8541 20.2072 30.074C19.9994 30.302 19.9994 30.302 20 31.0155C22.5008 31.0155 25.0016 31.0155 27.5781 31.0155C27.5044 30.3331 27.5044 30.3331 27.1286 29.9517C27.0689 29.9096 27.0092 29.8676 26.9478 29.8243C26.8835 29.7823 26.8192 29.7404 26.7529 29.6971C26.6868 29.6513 26.6206 29.6055 26.5524 29.5583C26.4156 29.4637 26.2782 29.37 26.1401 29.2773C25.8896 29.1082 25.6438 28.9332 25.3978 28.7575C25.2339 28.6407 25.0692 28.525 24.9042 28.4096C24.7215 28.2819 24.5397 28.1531 24.3585 28.0233C24.2882 27.973 24.2179 27.9227 24.1455 27.871C24.0868 27.8287 24.0281 27.7864 23.9676 27.7428C23.7176 27.5875 23.6164 27.6825 23.3984 27.8426ZM7.5 28.9843C7.5 29.7577 7.5 30.5311 7.5 31.328C7.93828 31.328 8.37656 31.328 8.82812 31.328C8.82812 30.5546 8.82812 29.7811 8.82812 28.9843C8.38984 28.9843 7.95156 28.9843 7.5 28.9843ZM18.346 32.241C18.2177 32.5024 18.1398 32.7681 18.0469 33.0468C21.8109 33.0468 25.575 33.0468 29.4531 33.0468C29.2851 32.4578 29.2851 32.4578 28.9844 31.953C28.79 31.8937 28.79 31.8937 28.5644 31.9018C28.4772 31.9004 28.39 31.8989 28.3001 31.8975C28.2044 31.8979 28.1087 31.8983 28.0101 31.8987C27.9094 31.8977 27.8086 31.8966 27.7048 31.8955C27.4283 31.8927 27.1518 31.8925 26.8753 31.8928C26.6445 31.8929 26.4136 31.8919 26.1828 31.8908C25.6381 31.8885 25.0935 31.8882 24.5488 31.8892C23.987 31.8902 23.4253 31.8874 22.8635 31.8829C22.3811 31.8791 21.8988 31.8778 21.4164 31.8783C21.1283 31.8786 20.8403 31.878 20.5522 31.875C20.2308 31.8718 19.9096 31.8736 19.5882 31.8758C19.4451 31.8734 19.4451 31.8734 19.2991 31.8709C18.7337 31.8724 18.7337 31.8724 18.346 32.241ZM5.70312 32.2655C5.70312 32.5233 5.70312 32.7811 5.70312 33.0468C7.32734 33.0468 8.95156 33.0468 10.625 33.0468C10.6876 32.5749 10.6876 32.5749 10.5469 32.1874C10.3987 32.1796 10.2502 32.1774 10.1018 32.1773C10.0066 32.177 9.91147 32.1768 9.81343 32.1765C9.70879 32.1767 9.60415 32.1768 9.49951 32.177C9.39296 32.1769 9.28641 32.1769 9.17987 32.1768C8.9563 32.1767 8.73274 32.1768 8.50918 32.1772C8.22201 32.1776 7.93486 32.1774 7.6477 32.1769C7.42761 32.1766 7.20752 32.1767 6.98742 32.1769C6.88151 32.177 6.7756 32.1769 6.66969 32.1767C6.52191 32.1765 6.37413 32.1769 6.22635 32.1773C6.14209 32.1773 6.05784 32.1774 5.97104 32.1775C5.78526 32.1659 5.78526 32.1659 5.70312 32.2655ZM2.96875 34.2967C2.91666 34.5311 2.91666 34.5311 2.96875 34.7655C3.14313 34.988 3.24609 35.0663 3.51562 35.1561C3.69638 35.1636 3.87735 35.1661 4.05826 35.1662C4.14198 35.1664 4.14198 35.1664 4.2274 35.1666C4.41587 35.167 4.60433 35.1668 4.7928 35.1666C4.92871 35.1667 5.06463 35.1669 5.20054 35.1671C5.57515 35.1676 5.94976 35.1676 6.32438 35.1675C6.72795 35.1675 7.13152 35.1679 7.53509 35.1683C8.32619 35.1689 9.11728 35.1691 9.90837 35.1692C10.5512 35.1692 11.194 35.1694 11.8368 35.1696C13.6578 35.1703 15.4789 35.1707 17.2999 35.1706C17.4473 35.1706 17.4473 35.1706 17.5976 35.1706C17.696 35.1706 17.7943 35.1706 17.8957 35.1706C19.4903 35.1706 21.0849 35.1713 22.6796 35.1724C24.3155 35.1735 25.9515 35.1741 27.5875 35.174C28.5065 35.174 29.4255 35.1742 30.3446 35.175C31.127 35.1757 31.9094 35.1759 32.6918 35.1754C33.0912 35.1751 33.4906 35.1751 33.89 35.1758C34.2554 35.1764 34.6207 35.1763 34.9861 35.1756C35.1185 35.1755 35.251 35.1756 35.3834 35.1761C35.563 35.1766 35.7425 35.1762 35.9221 35.1756C36.022 35.1756 36.1218 35.1756 36.2247 35.1756C36.5535 35.1509 36.7792 35.0893 37.0215 34.8632C37.1453 34.6155 37.1144 34.4791 37.0312 34.2186C36.8443 34.026 36.735 33.9861 36.4659 33.9548C36.3646 33.9547 36.2633 33.9546 36.159 33.9545C36.1022 33.9542 36.0455 33.9538 35.9871 33.9534C35.796 33.9525 35.6049 33.9532 35.4139 33.954C35.2759 33.9536 35.1379 33.9532 34.9999 33.9527C34.62 33.9516 34.2401 33.9519 33.8602 33.9525C33.4507 33.9528 33.0413 33.9519 32.6319 33.9511C31.8295 33.9497 31.0271 33.9496 30.2247 33.9501C29.5728 33.9504 28.9209 33.9503 28.2689 33.9498C28.1763 33.9498 28.0836 33.9497 27.9881 33.9497C27.7999 33.9495 27.6116 33.9494 27.4234 33.9493C25.657 33.9482 23.8905 33.9487 22.1241 33.9496C20.5066 33.9503 18.8892 33.9493 17.2718 33.9475C15.6125 33.9455 13.9531 33.9448 12.2937 33.9453C11.3616 33.9456 10.4294 33.9454 9.49722 33.944C8.70375 33.9429 7.91029 33.9428 7.11682 33.9442C6.71172 33.9449 6.30663 33.945 5.90153 33.9438C5.53105 33.9428 5.1606 33.9431 4.79011 33.9446C4.65574 33.9449 4.52136 33.9447 4.38699 33.9439C4.20496 33.9429 4.02305 33.9438 3.84103 33.9451C3.73975 33.9452 3.63846 33.9452 3.5341 33.9452C3.23772 33.991 3.14438 34.0576 2.96875 34.2967Z" fill="#2F4767"/>
<path d="M24.7446 11.2787C25.0964 11.5318 25.3323 11.8562 25.4688 12.2656C25.5205 12.8472 25.5595 13.3761 25.195 13.8583C24.8683 14.2106 24.5402 14.5055 24.0491 14.5575C23.0245 14.5687 23.0245 14.5687 22.5781 14.2187C22.1722 13.8128 21.9442 13.3945 21.9238 12.8174C21.9441 12.2831 22.0727 11.896 22.4365 11.499C23.1069 10.8847 23.9608 10.8467 24.7446 11.2787ZM22.9688 12.3437C22.943 12.3695 22.9172 12.3953 22.8906 12.4219C22.8461 12.7752 22.8429 13.0448 23.0274 13.3545C23.3158 13.6189 23.4207 13.6734 23.8232 13.667C24.0681 13.6268 24.1577 13.5818 24.3701 13.4326C24.57 13.1479 24.6455 12.926 24.6094 12.5781C24.4556 12.2816 24.3404 12.1384 24.0625 11.9531C23.5651 11.8646 23.289 11.9335 22.9688 12.3437Z" fill="#F2F2F2"/>
<path d="M24.7446 11.2787C25.0964 11.5318 25.3323 11.8562 25.4688 12.2656C25.5205 12.8472 25.5595 13.3761 25.195 13.8583C24.8683 14.2106 24.5402 14.5055 24.0491 14.5575C23.0245 14.5687 23.0245 14.5687 22.5781 14.2187C22.1722 13.8128 21.9442 13.3945 21.9238 12.8174C21.9441 12.2831 22.0727 11.896 22.4365 11.499C23.1069 10.8847 23.9608 10.8467 24.7446 11.2787ZM22.9688 12.3437C22.943 12.3695 22.9172 12.3953 22.8906 12.4219C22.8461 12.7752 22.8429 13.0448 23.0274 13.3545C23.3158 13.6189 23.4207 13.6734 23.8232 13.667C24.0681 13.6268 24.1577 13.5818 24.3701 13.4326C24.57 13.1479 24.6455 12.926 24.6094 12.5781C24.4556 12.2816 24.3404 12.1384 24.0625 11.9531C23.5651 11.8646 23.289 11.9335 22.9688 12.3437Z" fill="#2F4767"/>
</g>
<defs>
<clipPath id="clip0_8_194">
<rect width="40" height="40" rx="6" fill="white"/>
</clipPath>
</defs>
</svg>
